<svg width="180" height="180" viewBox="0 0 180 180" fill="none" xmlns="http://www.w3.org/2000/svg">
  <rect width="180" height="180" rx="37" fill="#0f172a"/>
  <!-- Scale / Balance icon -->
  <g stroke="#d4a853" stroke-width="5" stroke-linecap="round" stroke-linejoin="round" fill="none">
    <!-- Center pillar -->
    <line x1="90" y1="45" x2="90" y2="135"/>
    <!-- Base -->
    <line x1="65" y1="135" x2="115" y2="135"/>
    <!-- Beam -->
    <line x1="40" y1="65" x2="140" y2="65"/>
    <!-- Top triangle -->
    <polygon points="90,45 83,55 97,55" fill="#d4a853" stroke="none"/>
    <!-- Left pan chains -->
    <line x1="40" y1="65" x2="30" y2="95"/>
    <line x1="40" y1="65" x2="50" y2="95"/>
    <!-- Left pan -->
    <path d="M25 95 Q27 110 40 110 Q53 110 55 95" fill="#d4a853" opacity="0.3"/>
    <path d="M25 95 Q27 110 40 110 Q53 110 55 95"/>
    <!-- Right pan chains -->
    <line x1="140" y1="65" x2="130" y2="95"/>
    <line x1="140" y1="65" x2="150" y2="95"/>
    <!-- Right pan -->
    <path d="M125 95 Q127 110 140 110 Q153 110 155 95" fill="#d4a853" opacity="0.3"/>
    <path d="M125 95 Q127 110 140 110 Q153 110 155 95"/>
  </g>
</svg>
